<svg width="20" height="21" viewBox="0 0 20 21" fill="none" xmlns="http://www.w3.org/2000/svg">
<circle cx="10" cy="10.9326" r="9.25" fill="white" stroke="#CACDD8" stroke-width="1.5"/>
<path d="M6.0472 15.6762H6.10254L8.66678 15.4425C8.94767 15.4146 9.21039 15.2908 9.41083 15.092L14.9452 9.5577C15.16 9.33078 15.276 9.02795 15.268 8.71558C15.2599 8.40322 15.1283 8.10679 14.9021 7.89126L13.2172 6.20636C12.9973 5.99981 12.7092 5.88129 12.4076 5.87335C12.106 5.86541 11.812 5.96861 11.5815 6.16332L6.0472 11.6976C5.84843 11.8981 5.72467 12.1608 5.69669 12.4417L5.43227 15.0059C5.42399 15.096 5.43568 15.1868 5.4665 15.2718C5.49732 15.3569 5.54653 15.434 5.6106 15.4979C5.66806 15.5549 5.7362 15.6 5.81112 15.6306C5.88604 15.6612 5.96627 15.6767 6.0472 15.6762ZM12.3625 7.06726L14.0412 8.746L12.8114 9.94511L11.1634 8.29711L12.3625 7.06726ZM6.88964 12.5462L10.3517 9.10881L12.012 10.7691L8.56839 14.2127L6.72361 14.3849L6.88964 12.5462Z" fill="#A2A6B0"/>
</svg>
