<svg width="28" height="28" viewBox="0 0 28 28" fill="none" xmlns="http://www.w3.org/2000/svg">
<path d="M15.8772 23.2138C16.4787 23.2138 17.0556 22.9748 17.481 22.5494C17.9064 22.1241 18.1453 21.5472 18.1453 20.9456C18.1453 20.3441 17.9064 19.7672 17.481 19.3418C17.0556 18.9164 16.4787 18.6775 15.8772 18.6775C15.2756 18.6775 14.6987 18.9164 14.2734 19.3418C13.848 19.7672 13.609 20.3441 13.609 20.9456C13.609 21.5472 13.848 22.1241 14.2734 22.5494C14.6987 22.9748 15.2756 23.2138 15.8772 23.2138ZM7.93867 23.2138C8.54022 23.2138 9.11713 22.9748 9.54249 22.5494C9.96785 22.1241 10.2068 21.5472 10.2068 20.9456C10.2068 20.3441 9.96785 19.7672 9.54249 19.3418C9.11713 18.9164 8.54022 18.6775 7.93867 18.6775C7.33712 18.6775 6.76021 18.9164 6.33485 19.3418C5.90949 19.7672 5.67053 20.3441 5.67053 20.9456C5.67053 21.5472 5.90949 22.1241 6.33485 22.5494C6.76021 22.9748 7.33712 23.2138 7.93867 23.2138ZM22.7247 7.24942C23.0078 7.24029 23.2763 7.12141 23.4733 6.91792C23.6704 6.71442 23.7805 6.44227 23.7805 6.15901C23.7805 5.87576 23.6704 5.60361 23.4733 5.40011C23.2763 5.19662 23.0078 5.07773 22.7247 5.0686H21.4194C20.3965 5.0686 19.5119 5.77853 19.2896 6.77652L17.8686 13.175C17.6463 14.1729 16.7618 14.8829 15.7388 14.8829H7.21967L5.58434 8.33927H16.1822C16.4627 8.32647 16.7274 8.20606 16.9213 8.00307C17.1153 7.80009 17.2235 7.53016 17.2235 7.24942C17.2235 6.96869 17.1153 6.69876 16.9213 6.49577C16.7274 6.29279 16.4627 6.17238 16.1822 6.15958H5.58434C5.25281 6.15948 4.92562 6.23497 4.62765 6.38031C4.32968 6.52565 4.06876 6.73701 3.86474 6.99832C3.66072 7.25964 3.51896 7.56403 3.45024 7.88836C3.38152 8.21268 3.38765 8.54841 3.46816 8.87001L5.10349 15.4113C5.22138 15.8833 5.49371 16.3024 5.87717 16.6018C6.26062 16.9012 6.73317 17.0638 7.21967 17.0637H15.7388C16.7314 17.0638 17.6943 16.7254 18.4685 16.1044C19.2428 15.4833 19.782 14.6168 19.9973 13.6479L21.4194 7.24942H22.7247Z" fill="white"/>
</svg>
