<svg width="50" height="51" viewBox="0 0 50 51" fill="none" xmlns="http://www.w3.org/2000/svg">
<path d="M50 25.8962C50 12.0891 38.8071 0.89624 25 0.89624C11.1929 0.89624 0 12.0891 0 25.8962C0 39.7034 11.1929 50.8962 25 50.8962H50V25.8962Z" fill="#0156FF"/>
<path d="M13.3516 15.7473C12.6405 15.7473 11.9585 16.0298 11.4557 16.5326C10.9529 17.0354 10.6704 17.7174 10.6704 18.4285V33.1749H13.3516C13.3516 34.2415 13.7753 35.2645 14.5295 36.0187C15.2837 36.7729 16.3067 37.1966 17.3733 37.1966C18.44 37.1966 19.4629 36.7729 20.2171 36.0187C20.9714 35.2645 21.3951 34.2415 21.3951 33.1749H29.4386C29.4386 34.2415 29.8623 35.2645 30.6165 36.0187C31.3707 36.7729 32.3937 37.1966 33.4603 37.1966C34.527 37.1966 35.5499 36.7729 36.3041 36.0187C37.0584 35.2645 37.4821 34.2415 37.4821 33.1749H40.1632V26.472L36.1415 21.1096H32.1197V15.7473H13.3516ZM32.1197 23.1205H35.4712L38.1122 26.472H32.1197V23.1205ZM17.3733 31.164C17.9066 31.164 18.4181 31.3759 18.7952 31.753C19.1723 32.1301 19.3842 32.6416 19.3842 33.1749C19.3842 33.7082 19.1723 34.2197 18.7952 34.5968C18.4181 34.9739 17.9066 35.1858 17.3733 35.1858C16.84 35.1858 16.3285 34.9739 15.9514 34.5968C15.5743 34.2197 15.3625 33.7082 15.3625 33.1749C15.3625 32.6416 15.5743 32.1301 15.9514 31.753C16.3285 31.3759 16.84 31.164 17.3733 31.164ZM33.4603 31.164C33.9936 31.164 34.5051 31.3759 34.8822 31.753C35.2593 32.1301 35.4712 32.6416 35.4712 33.1749C35.4712 33.7082 35.2593 34.2197 34.8822 34.5968C34.5051 34.9739 33.9936 35.1858 33.4603 35.1858C32.927 35.1858 32.4155 34.9739 32.0384 34.5968C31.6613 34.2197 31.4495 33.7082 31.4495 33.1749C31.4495 32.6416 31.6613 32.1301 32.0384 31.753C32.4155 31.3759 32.927 31.164 33.4603 31.164Z" fill="white"/>
</svg>
