<svg width="50" height="51" viewBox="0 0 50 51" fill="none" xmlns="http://www.w3.org/2000/svg">
<path d="M50 25.5C50 11.6929 38.8071 0.5 25 0.5C11.1929 0.5 0 11.6929 0 25.5C0 39.3071 11.1929 50.5 25 50.5H50V25.5Z" fill="#0156FF"/>
<path d="M23.8918 13.5128C24.2416 12.7146 25.374 12.7146 25.7237 13.5128L28.9109 20.7872C29.056 21.1183 29.3685 21.3453 29.7283 21.381L37.6315 22.1643C38.4987 22.2503 38.8486 23.3272 38.1975 23.9065L32.2642 29.1857C31.9941 29.426 31.8747 29.7933 31.952 30.1465L33.6492 37.9049C33.8354 38.7563 32.9193 39.4219 32.1672 38.9817L25.3129 34.97C25.0009 34.7874 24.6146 34.7874 24.3027 34.97L17.4484 38.9817C16.6962 39.4219 15.7801 38.7563 15.9664 37.9049L17.6636 30.1465C17.7408 29.7933 17.6215 29.426 17.3514 29.1857L11.418 23.9065C10.7669 23.3272 11.1168 22.2503 11.9841 22.1643L19.8873 21.381C20.247 21.3453 20.5595 21.1183 20.7046 20.7872L23.8918 13.5128Z" fill="white"/>
</svg>
