<svg width="65" height="66" viewBox="0 0 65 66" fill="none" xmlns="http://www.w3.org/2000/svg">
<circle cx="32.5" cy="32.7341" r="32.5" fill="#0156FF"/>
<path d="M32.9121 20.6265C26.1068 20.6265 20.5703 26.163 20.5703 32.9682V38.0814C20.5703 39.3452 21.6774 40.3733 23.0387 40.3733H24.2728C24.6002 40.3733 24.9141 40.2433 25.1455 40.0118C25.377 39.7804 25.507 39.4664 25.507 39.1391V32.7918C25.507 32.4644 25.377 32.1505 25.1455 31.9191C24.9141 31.6876 24.6002 31.5576 24.2728 31.5576H23.1522C23.8384 26.7813 27.9482 23.0948 32.9121 23.0948C37.8759 23.0948 41.9858 26.7813 42.672 31.5576H41.5513C41.224 31.5576 40.9101 31.6876 40.6786 31.9191C40.4472 32.1505 40.3172 32.4644 40.3172 32.7918V40.3733C40.3172 41.7346 39.2101 42.8417 37.8488 42.8417H35.3804V41.6075H30.4437V45.31H37.8488C40.5714 45.31 42.7855 43.0959 42.7855 40.3733C44.1468 40.3733 45.2539 39.3452 45.2539 38.0814V32.9682C45.2539 26.163 39.7173 20.6265 32.9121 20.6265Z" fill="white"/>
</svg>
