<svg width="40" height="40" viewBox="0 0 40 40" fill="none" xmlns="http://www.w3.org/2000/svg">
<circle cx="20" cy="20" r="20" fill="#0156FF"/>
<path d="M20 6.66675C27.5111 6.66675 33.3333 12.1686 33.3333 19.6001C33.3333 27.0315 27.5111 32.5334 20 32.5334C18.6509 32.5334 17.3565 32.3552 16.1404 32.0208C15.904 31.9557 15.6526 31.9742 15.4283 32.0733L12.7818 33.2415C12.0895 33.5471 11.3081 33.0547 11.2849 32.2983L11.2123 29.9263C11.2033 29.6343 11.0719 29.361 10.8541 29.1662C8.25972 26.8461 6.66666 23.4872 6.66666 19.6001C6.66666 12.1686 12.4889 6.66675 20 6.66675ZM11.9934 23.3824C11.6175 23.9787 12.3505 24.6507 12.912 24.2246L17.1192 21.0316C17.4038 20.8156 17.797 20.8145 18.0828 21.0288L21.198 23.3652C22.1328 24.0664 23.4669 23.8202 24.09 22.8317L28.0066 16.6178C28.3824 16.0214 27.6494 15.3494 27.0879 15.7756L22.8808 18.9685C22.5962 19.1845 22.2029 19.1856 21.9171 18.9712L18.802 16.6349C17.8672 15.9338 16.533 16.18 15.91 17.1685L11.9934 23.3824Z" fill="white"/>
</svg>
