<svg width="232" height="190" viewBox="0 0 232 190" fill="none" xmlns="http://www.w3.org/2000/svg">
<mask id="path-1-inside-1_126_3456" fill="white">
<path fill-rule="evenodd" clip-rule="evenodd" d="M212.858 1.77724C211.657 0.250495 209.343 0.250499 208.142 1.77725L200.764 11.1559H0V190H232V11.1559H220.236L212.858 1.77724Z"/>
</mask>
<path fill-rule="evenodd" clip-rule="evenodd" d="M212.858 1.77724C211.657 0.250495 209.343 0.250499 208.142 1.77725L200.764 11.1559H0V190H232V11.1559H220.236L212.858 1.77724Z" fill="white"/>
<path d="M208.142 1.77725L207.356 1.15893V1.15893L208.142 1.77725ZM212.858 1.77724L212.072 2.39555V2.39556L212.858 1.77724ZM200.764 11.1559V12.1559H201.249L201.55 11.7742L200.764 11.1559ZM0 11.1559V10.1559H-1V11.1559H0ZM0 190H-1V191H0V190ZM232 190V191H233V190H232ZM232 11.1559H233V10.1559H232V11.1559ZM220.236 11.1559L219.45 11.7742L219.751 12.1559H220.236V11.1559ZM208.928 2.39556C209.729 1.37772 211.271 1.37773 212.072 2.39555L213.644 1.15893C212.042 -0.876739 208.958 -0.876724 207.356 1.15893L208.928 2.39556ZM201.55 11.7742L208.928 2.39556L207.356 1.15893L199.978 10.5376L201.55 11.7742ZM0 12.1559H200.764V10.1559H0V12.1559ZM1 190V11.1559H-1V190H1ZM232 189H0V191H232V189ZM231 11.1559V190H233V11.1559H231ZM220.236 12.1559H232V10.1559H220.236V12.1559ZM212.072 2.39556L219.45 11.7742L221.022 10.5376L213.644 1.15893L212.072 2.39556Z" fill="black" fill-opacity="0.2" mask="url(#path-1-inside-1_126_3456)"/>
</svg>
