<svg width="30" height="30" viewBox="0 0 30 30" fill="none" xmlns="http://www.w3.org/2000/svg">
<path d="M14.5714 14.5714C13.3929 14.5714 12.4286 13.6456 12.4286 12.5142C12.4286 11.3828 13.3929 10.4571 14.5714 10.4571C15.75 10.4571 16.7143 11.3828 16.7143 12.5142C16.7143 13.6456 15.75 14.5714 14.5714 14.5714ZM21 12.7199C21 8.98622 18.1607 6.34279 14.5714 6.34279C10.9821 6.34279 8.14286 8.98622 8.14286 12.7199C8.14286 15.1268 10.2321 18.3154 14.5714 22.1211C18.9107 18.3154 21 15.1268 21 12.7199ZM14.5714 4.28564C19.0714 4.28564 23.1429 7.59764 23.1429 12.7199C23.1429 16.1348 20.2821 20.1771 14.5714 24.8571C8.86071 20.1771 6 16.1348 6 12.7199C6 7.59764 10.0714 4.28564 14.5714 4.28564Z" fill="black"/>
</svg>
