<svg width="59" height="21" viewBox="0 0 59 21" fill="none" xmlns="http://www.w3.org/2000/svg">
<g clip-path="url(#clip0_133_3985)">
<path d="M20.9063 7.86424L16.1838 12.0733H4.48762C3.39665 12.0719 2.34285 12.4659 1.5249 13.1812L7.42398 7.92214L7.51449 7.84268L14.9052 1.24868C16.0969 0.186554 17.77 -0.164967 19.2942 0.326526C20.8185 0.818019 21.9622 2.07786 22.2948 3.63147C22.6273 5.18509 22.098 6.79645 20.9063 7.85857V7.86424Z" fill="#F15B41"/>
<path d="M4.48761 9.00709C6.96605 9.00709 8.97522 7.0164 8.97522 4.56077C8.97522 2.10513 6.96605 0.114441 4.48761 0.114441C2.00917 0.114441 0 2.10513 0 4.56077C0 7.0164 2.00917 9.00709 4.48761 9.00709Z" fill="#F99D1D"/>
<path d="M4.48755 12.0733C3.39659 12.0719 2.34278 12.4659 1.52484 13.1812L1.48703 13.2153C-0.355505 14.8572 -0.505795 17.6681 1.15135 19.4937C2.80849 21.3193 5.64554 21.4682 7.48807 19.8263L16.1849 12.0744L4.48755 12.0733Z" fill="#272560"/>
<path d="M16.1777 12.0767L7.47993 19.8286C6.65636 20.5624 5.58707 20.9669 4.47949 20.9638L17.8984 20.9637C20.4868 20.9227 22.3142 18.9933 22.3142 16.518C22.3142 14.0426 20.3485 12.111 17.8984 12.0722L16.1777 12.0767Z" fill="#00B6BD"/>
<path d="M28.82 17.2466C28.4464 17.2603 28.0849 17.1143 27.8281 16.8459C27.5767 16.575 27.4426 16.2177 27.4546 15.8504C27.4511 15.4805 27.5437 15.1159 27.7235 14.7913C27.8815 14.5012 28.0745 14.2309 28.2982 13.9865L33.8505 7.78642H29.0108C28.5418 7.78642 28.2062 7.6275 28.0224 7.31194C27.8433 6.99493 27.754 6.63616 27.7638 6.27329C27.7508 5.92357 27.8528 5.57911 28.0545 5.2914C28.2544 5.01911 28.5798 4.86463 28.92 4.88048H37.4708C37.8324 4.86402 38.185 4.99446 38.4466 5.24145C38.6891 5.48096 38.8121 5.8215 38.8121 6.25286C38.8223 6.58875 38.7514 6.92222 38.6052 7.22567C38.4649 7.49004 38.289 7.73443 38.0823 7.95215L32.3001 14.3396H37.7788C38.1084 14.3315 38.4222 14.479 38.6236 14.7369C38.8382 15.0251 38.9464 15.3772 38.9304 15.7346C38.9461 16.107 38.8557 16.4763 38.6696 16.8005C38.4822 17.0968 38.1501 17.2478 37.6834 17.2478L28.82 17.2466Z" fill="#272560"/>
<path d="M42.252 17.4101C40.7303 17.4101 40.4131 16.6382 40.4131 15.9912V6.54687C40.4131 6.05309 40.5637 5.65352 40.8625 5.35952C41.1613 5.06552 41.6371 4.91569 42.2784 4.91569C42.8186 4.91569 43.2462 5.03714 43.5507 5.27779C43.8553 5.51844 44.0243 5.90666 44.0243 6.40612V15.9413C44.0243 16.46 43.8588 16.8414 43.5323 17.0764C43.2059 17.3114 42.7864 17.4101 42.252 17.4101ZM42.252 3.90201C41.659 3.90201 41.1728 3.7306 40.805 3.39233C40.4373 3.05406 40.2453 2.58752 40.2453 2.01428C40.2312 1.50608 40.4334 1.01529 40.8027 0.661199C41.1671 0.308172 41.6555 0.127686 42.252 0.127686C42.7439 0.128745 43.222 0.288149 43.6139 0.58174C44.0415 0.892767 44.2587 1.37633 44.2587 2.01882C44.2587 2.59206 44.0702 3.05633 43.699 3.39801C43.3278 3.73969 42.8416 3.90542 42.252 3.90542V3.90201Z" fill="#272560"/>
<path d="M47.9917 21.0291C46.5689 21.0291 46.2677 20.2447 46.2677 19.5864V6.22681C46.2555 5.80837 46.4184 5.40345 46.7183 5.10756C47.0159 4.81355 47.4929 4.66371 48.1342 4.66371C48.5331 4.65971 48.9272 4.75001 49.2835 4.92707C49.6616 5.11891 49.8582 5.49464 49.8582 6.03384C49.9348 5.94681 50.0172 5.85751 50.1053 5.76594C50.3468 5.52377 50.6169 5.31111 50.9098 5.13253C51.6216 4.6937 52.4464 4.4667 53.2854 4.47868C54.0894 4.46326 54.886 4.63351 55.6116 4.97588C56.2757 5.29964 56.8539 5.77235 57.3 6.35622C57.7648 6.98072 58.1043 7.68741 58.2999 8.43808C58.5236 9.2863 58.6333 10.1599 58.6263 11.0364C58.6345 11.9293 58.5082 12.8184 58.2516 13.6745C58.0248 14.435 57.6526 15.1456 57.1551 15.7677C56.6758 16.354 56.0683 16.8255 55.3783 17.1469C54.6275 17.487 53.809 17.6565 52.9831 17.643C52.4301 17.6587 51.8783 17.5819 51.3511 17.416C50.9725 17.2892 50.6127 17.1132 50.2811 16.8927C50.1014 16.7721 49.9357 16.6324 49.7869 16.4761V19.5182C49.7869 20.0472 49.641 20.4377 49.3525 20.6784C49.064 20.919 48.6204 21.0291 47.9917 21.0291ZM52.366 7.50499C51.9743 7.49563 51.5869 7.58593 51.2408 7.76721C50.9151 7.9496 50.636 8.20315 50.4248 8.50846C50.1875 8.85388 50.0143 9.23826 49.9133 9.6436C49.7944 10.1147 49.7361 10.5986 49.7398 11.0841C49.7398 12.1897 49.9697 13.0763 50.4294 13.7199C50.8891 14.3635 51.5132 14.6644 52.3706 14.6644C53.228 14.6644 53.852 14.342 54.2853 13.6779C54.7186 13.0139 54.9496 12.1296 54.9496 11.0841C54.9511 10.5999 54.8908 10.1175 54.7703 9.64814C54.6693 9.24454 54.4999 8.86074 54.2692 8.513C54.064 8.20727 53.7883 7.954 53.4647 7.77402C53.128 7.59257 52.7495 7.49992 52.366 7.50499Z" fill="#272560"/>
</g>
<defs>
<clipPath id="clip0_133_3985">
<rect width="59" height="21" fill="white"/>
</clipPath>
</defs>
</svg>
